<?xml version="1.0" encoding="UTF-8" standalone="no"?>
<!-- Created with Inkscape (http://www.inkscape.org/) -->
<svg id="svg4208" xmlns:rdf="http://www.w3.org/1999/02/22-rdf-syntax-ns#" xmlns="http://www.w3.org/2000/svg" height="724.46" width="732.3" version="1.1" xmlns:cc="http://creativecommons.org/ns#" xmlns:dc="http://purl.org/dc/elements/1.1/">
 <metadata id="metadata4">
  <rdf:RDF>
   <cc:Work rdf:about="">
    <dc:format>image/svg+xml</dc:format>
    <dc:type rdf:resource="http://purl.org/dc/dcmitype/StillImage"/>
    <dc:title/>
   </cc:Work>
  </rdf:RDF>
 </metadata>
 <g id="layer1" transform="translate(-13.848 -172.99)">
  <path id="path4160" d="m380 208.42c-182.65 0-330.72 146.33-330.72 326.81 0 180.49 148.07 326.78 330.72 326.78s330.72-146.3 330.72-326.78c0-180.49-148.07-326.81-330.72-326.81z" fill="#005387"/>
  <g id="g4837" transform="matrix(1.1715 0 0 1.1715 -70.812 -66.096)">
   <path id="path4104" d="m303.73 667.58c15.819-53.387 13.551-55.809-19.583-92.766-40.128-51.328-39.51-59.444-17.361-88.017 18.061-25.179 56.205-23.484 114.48-24.203 74.682 2.3759 139.97 1.7472 150.5-2.6053-24.55 15.037-13.474 30.599-13.474 30.599 9.6911 29.34-33.64 36.054 6.9981 69.407 7.8948 11.238-9.6104 15.466-17.647 21.312 6.299 9.0077 3.3619 14.525-2.2876 16.34 0 0 4.4563 6.1374 3.268 9.1503-1.3942 3.5352-10.131 5.2288-10.131 5.2288-0.13907 27.617-0.26553 24.774-22.222 30.719 0 0-42.357 3.2412-46.405 4.2484-4.0479 1.0072-14.379 50.654-14.379 50.654" stroke="#fffffc" stroke-width="12" fill="none"/>
   <path id="path3197" d="m347.14 338.85c-80.876 2.1827-136.66 39.715-138.5 107.65l368.84 0.0289c-0.21-25.74-62.48-69.43-97.93-82.76-53.15-22-103.79-25.09-132.41-24.92zm8.375 39.328c38.11-0.20062 77.61 9.2725 100.88 19.013 8.0247 3.7156 17.777 10.252 4.9062 10.042-58.019-0.94553-180.28-0.52089-180.28-0.52089-6.1339-0.43304-3.6316-6.7686 3.875-11.547 19.142-12.184 44.549-16.85 70.625-16.987zm-146.88 72.608c-2.4945 47.887 15.709 60.287 29.719 79.9 5.3972 6.7246 23.789 4.0805 50.656-4.6592l96.406 58.804 39.531 70.842 21.594-6.0772-37.594-71.711 50.531-93.038 79.531-1.0707c22.826-0.0857 35.472-9.7531 37.906-23.614l0.34375-7.8714-368.62-1.5048zm223.72 34.437-41.062 76.92-75.906-47.055 67.75-29.199 49.219-0.6656z" stroke="#fff" stroke-width=".96231px" fill="#fff"/>
  </g>
 </g>
</svg>
