<?xml version="1.0" encoding="UTF-8" standalone="no"?>
<!-- Created with Inkscape (http://www.inkscape.org/) -->
<svg id="svg4208" xmlns:rdf="http://www.w3.org/1999/02/22-rdf-syntax-ns#" xmlns="http://www.w3.org/2000/svg" height="724.46" width="732.3" version="1.1" xmlns:cc="http://creativecommons.org/ns#" xmlns:dc="http://purl.org/dc/elements/1.1/">
 <metadata id="metadata4">
  <rdf:RDF>
   <cc:Work rdf:about="">
    <dc:format>image/svg+xml</dc:format>
    <dc:type rdf:resource="http://purl.org/dc/dcmitype/StillImage"/>
   </cc:Work>
  </rdf:RDF>
 </metadata>
 <g id="layer1" transform="translate(-13.848 -172.99)">
  <path id="path4160" fill="#9b2423" d="m380 208.42c-182.65 0-330.72 146.33-330.72 326.81 0 180.49 148.07 326.78 330.72 326.78s330.72-146.3 330.72-326.78c0-180.49-148.07-326.81-330.72-326.81zm-1.9375 62.75c144.75 0 262.09 117.94 262.09 263.41 0 59.297-19.503 114.01-52.406 158.03l-371.94-364.88c44.63-35.407 100.98-56.562 162.25-56.562zm-209.94 105.69 371.88 364.84c-44.578 35.244-100.82 56.25-161.94 56.25-144.75 0-262.09-117.9-262.09-263.38 0-59.154 19.397-113.75 52.156-157.72z"/>
 </g>
</svg>
