<?xml version="1.0" encoding="UTF-8" standalone="no"?>
<!-- Created with Inkscape (http://www.inkscape.org/) -->
<svg id="svg4069" xmlns:rdf="http://www.w3.org/1999/02/22-rdf-syntax-ns#" xmlns="http://www.w3.org/2000/svg" height="340pt" width="343pt" version="1.1" xmlns:cc="http://creativecommons.org/ns#" xmlns:dc="http://purl.org/dc/elements/1.1/">
 <metadata id="metadata4075">
  <rdf:RDF>
   <cc:Work rdf:about="">
    <dc:format>image/svg+xml</dc:format>
    <dc:type rdf:resource="http://purl.org/dc/dcmitype/StillImage"/>
    <dc:title/>
   </cc:Work>
  </rdf:RDF>
 </metadata>
 <g id="layer1">
  <path id="path3197" d="m170.44 43.941c-80.872 2.357-136.65 42.887-138.5 116.25l368.84 0.0312c-0.21-27.8-62.48-74.972-97.93-89.373-53.15-23.749-103.79-27.088-132.41-26.906zm8.375 42.469c38.11-0.21664 77.61 10.013 100.88 20.531 8.0247 4.0124 17.777 11.07 4.9062 10.844-58.019-1.021-180.28-0.5625-180.28-0.5625-6.1339-0.46762-3.6316-7.3091 3.875-12.469 19.142-13.157 44.549-18.196 70.625-18.344zm-146.88 78.41c-2.4945 51.712 15.709 65.102 29.719 86.281 5.3972 7.2617 23.789 4.4064 50.656-5.0312l96.406 63.5 39.531 76.5 21.594-6.5625-37.594-77.438 50.531-100.47 79.531-1.1562c22.826-0.0926 35.472-10.532 37.906-25.5l0.34375-8.5-368.62-1.625zm223.72 37.188-41.062 83.062-75.906-50.812 67.75-31.531 49.219-0.71875z" stroke="#000" stroke-width="1px"/>
 </g>
</svg>
