<?xml version="1.0" encoding="UTF-8" standalone="no"?>
<!-- Created with Inkscape (http://www.inkscape.org/) -->

<svg
   xmlns:dc="http://purl.org/dc/elements/1.1/"
   xmlns:cc="http://creativecommons.org/ns#"
   xmlns:rdf="http://www.w3.org/1999/02/22-rdf-syntax-ns#"
   xmlns:svg="http://www.w3.org/2000/svg"
   xmlns="http://www.w3.org/2000/svg"
   xmlns:sodipodi="http://sodipodi.sourceforge.net/DTD/sodipodi-0.dtd"
   xmlns:inkscape="http://www.inkscape.org/namespaces/inkscape"
   width="343pt"
   height="340pt"
   id="svg2999"
   version="1.1"
   inkscape:version="0.48.5 r10040"
   sodipodi:docname="kid_head_helmet.svg">
  <defs
     id="defs3001" />
  <sodipodi:namedview
     pagecolor="#ffffff"
     bordercolor="#666666"
     borderopacity="1.0"
     inkscape:pageopacity="0.0"
     inkscape:pageshadow="2"
     inkscape:zoom="0.8"
     inkscape:cx="-81.25"
     inkscape:cy="210"
     inkscape:document-units="pt"
     inkscape:current-layer="layer1"
     id="namedview3003"
     showgrid="false"
     inkscape:window-width="1576"
     inkscape:window-height="761"
     inkscape:window-x="212"
     inkscape:window-y="281"
     inkscape:window-maximized="0" />
  <metadata
     id="metadata3005">
    <rdf:RDF>
      <cc:Work
         rdf:about="">
        <dc:format>image/svg+xml</dc:format>
        <dc:type
           rdf:resource="http://purl.org/dc/dcmitype/StillImage" />
        <dc:title />
      </cc:Work>
    </rdf:RDF>
  </metadata>
  <g
     inkscape:label="Layer 1"
     inkscape:groupmode="layer"
     id="layer1">
    <g
       id="g2984">
      <path
         sodipodi:nodetypes="cccccccccacczc"
         inkscape:connector-curvature="0"
         id="path4104"
         d="M 115.32236,371.781 C 132.17508,314.90381 129.75881,312.3234 94.459161,272.95021 51.708079,218.26686 52.366415,209.61992 75.963473,179.17922 95.204891,152.35368 135.84284,154.15966 197.93175,153.39365 c 79.5637,2.53121 149.12196,1.8614 160.34338,-2.77559 -26.15519,16.02031 -14.35507,32.59952 -14.35507,32.59952 10.32464,31.25846 -35.83933,38.41062 7.45556,73.94414 8.41095,11.97236 -10.2387,16.47711 -18.80068,22.70472 6.71074,9.59655 3.58166,15.47464 -2.43713,17.40806 0,0 4.74759,6.53858 3.48168,9.74851 -1.48535,3.7663 -10.79306,5.57058 -10.79306,5.57058 -0.14816,29.42239 -0.28288,26.39348 -23.6749,32.72716 0,0 -45.12647,3.45304 -49.43897,4.52609 -4.31251,1.07305 -15.31909,53.96497 -15.31909,53.96497"
         style="fill:none;stroke:#000000;stroke-width:12.78447818999999974;stroke-linecap:butt;stroke-linejoin:miter;stroke-miterlimit:4;stroke-opacity:1;stroke-dasharray:none" />
      <path
         id="path3197"
         d="M 161.57182,21.565253 C 75.408808,23.890643 15.980107,63.876933 14.017636,136.25548 l 392.956244,0.0308 C 406.74,108.85711 340.40163,62.318143 302.63389,48.110485 246.01192,24.679637 192.05484,21.385418 161.57182,21.565253 z m 8.9225,41.898922 c 40.60187,-0.213735 82.68331,9.878716 107.46953,20.255781 8.54929,3.958511 18.93932,10.921716 5.22698,10.698243 C 221.37896,93.410857 91.124021,93.863257 91.124021,93.863257 84.589097,93.401908 87.254991,86.652193 95.252342,81.561798 115.64576,68.581195 142.7141,63.610419 170.49432,63.464175 z M 14.017636,140.81842 c -2.657542,51.01789 16.736203,64.2284 31.66156,85.12358 5.75,7.16423 25.343662,4.34727 53.967811,-4.96375 l 102.708633,62.648 42.11554,75.47357 23.0054,-6.47445 -40.05138,-76.39849 53.83464,-99.12072 84.73047,-1.14073 c 24.31785,-0.0913 37.79102,-10.39066 40.3843,-25.15786 l 0.36622,-8.38594 -392.723194,-1.60321 z m 238.343964,36.68853 -43.74689,81.94803 -80.86849,-50.13072 72.17904,-31.10819 52.43634,-0.70912 z"
         style="fill:#000000;fill-opacity:1;stroke:#000000;stroke-width:1.02522123000000009px;stroke-linecap:butt;stroke-linejoin:miter;stroke-opacity:1"
         inkscape:connector-curvature="0" />
    </g>
  </g>
</svg>
