<?xml version="1.0" encoding="UTF-8" standalone="no"?>
<!-- Created with Inkscape (http://www.inkscape.org/) -->
<svg id="svg4117" xmlns:rdf="http://www.w3.org/1999/02/22-rdf-syntax-ns#" xmlns="http://www.w3.org/2000/svg" height="340pt" width="343pt" version="1.1" xmlns:cc="http://creativecommons.org/ns#" xmlns:dc="http://purl.org/dc/elements/1.1/">
 <metadata id="metadata4123">
  <rdf:RDF>
   <cc:Work rdf:about="">
    <dc:format>image/svg+xml</dc:format>
    <dc:type rdf:resource="http://purl.org/dc/dcmitype/StillImage"/>
    <dc:title/>
   </cc:Work>
  </rdf:RDF>
 </metadata>
 <g id="layer1">
  <path id="path4104" d="m121.98 341.64c15.819-53.387 13.551-55.809-19.583-92.766-40.129-51.32-36.481-113.99-14.332-142.56 18.062-25.179 50.142-54.799 108.42-55.518 74.682 2.3759 128.86 23.971 158.59 73.156 19.896 38.271-18.525 40.701-18.525 40.701 9.6911 29.34-33.64 36.054 6.9981 69.407 7.8948 11.238-9.6104 15.466-17.647 21.312 6.299 9.0077 3.3619 14.525-2.2876 16.34 0 0 4.4563 6.1374 3.268 9.1503-1.3942 3.5352-10.131 5.2288-10.131 5.2288-0.13907 27.617-0.26553 24.774-22.222 30.719 0 0-42.357 3.2412-46.405 4.2484-4.0479 1.0072-14.379 50.654-14.379 50.654" stroke="#000" stroke-width="12" fill="none"/>
 </g>
</svg>
