<?xml version="1.0" encoding="UTF-8" standalone="no"?>
<!-- Created with Inkscape (http://www.inkscape.org/) -->
<svg id="svg2999" xmlns:rdf="http://www.w3.org/1999/02/22-rdf-syntax-ns#" xmlns="http://www.w3.org/2000/svg" height="340pt" width="343pt" version="1.1" xmlns:cc="http://creativecommons.org/ns#" xmlns:dc="http://purl.org/dc/elements/1.1/">
 <metadata id="metadata3005">
  <rdf:RDF>
   <cc:Work rdf:about="">
    <dc:format>image/svg+xml</dc:format>
    <dc:type rdf:resource="http://purl.org/dc/dcmitype/StillImage"/>
    <dc:title/>
   </cc:Work>
  </rdf:RDF>
 </metadata>
 <g id="layer1">
  <g id="g2984" stroke="#000">
   <path id="path4104" d="m115.32 371.78c16.86-56.88 14.44-59.46-20.861-98.83-42.751-54.68-42.093-63.33-18.496-93.77 19.242-26.83 59.877-25.02 121.97-25.79 79.564 2.5312 149.12 1.8614 160.34-2.7756-26.155 16.02-14.355 32.6-14.355 32.6 10.325 31.258-35.839 38.411 7.4556 73.944 8.411 11.972-10.239 16.477-18.801 22.705 6.7107 9.5966 3.5817 15.475-2.4371 17.408 0 0 4.7476 6.5386 3.4817 9.7485-1.4854 3.7663-10.793 5.5706-10.793 5.5706-0.14816 29.422-0.28288 26.393-23.675 32.727 0 0-45.126 3.453-49.439 4.5261-4.3125 1.073-15.319 53.965-15.319 53.965" stroke-width="12.784" fill="none"/>
   <path id="path3197" d="m161.57 21.565c-86.161 2.326-145.59 42.312-147.55 114.7l392.96 0.0308c-0.24-27.43-66.58-73.972-104.35-88.18-56.62-23.43-110.58-26.725-141.06-26.545zm8.9225 41.899c40.602-0.21374 82.683 9.8787 107.47 20.256 8.5493 3.9585 18.939 10.922 5.227 10.698-61.81-1.007-192.07-0.555-192.07-0.555-6.531-0.461-3.865-7.211 4.132-12.301 20.398-12.981 47.458-17.952 75.238-18.098zm-156.47 77.356c-2.6575 51.018 16.736 64.228 31.662 85.124 5.75 7.1642 25.344 4.3473 53.968-4.9638l102.71 62.648 42.116 75.474 23.005-6.4744-40.051-76.398 53.835-99.121 84.73-1.1407c24.318-0.0913 37.791-10.391 40.384-25.158l0.36622-8.3859-392.72-1.6032zm238.34 36.689-43.747 81.948-80.868-50.131 72.179-31.108 52.436-0.70912z" stroke-width="1.0252px"/>
  </g>
 </g>
</svg>
